<?xml version="1.0" encoding="UTF-8" standalone="no"?>
<!-- Created with Inkscape (http://www.inkscape.org/) -->

<svg
   width="255.99998"
   height="255.99998"
   viewBox="0 0 67.733328 67.733329"
   version="1.1"
   id="svg5"
   xml:space="preserve"
   inkscape:export-filename="favicon.svg"
   inkscape:export-xdpi="96"
   inkscape:export-ydpi="96"
   inkscape:version="1.3.2 (091e20e, 2023-11-25, custom)"
   sodipodi:docname="favicon.svg"
   xmlns:inkscape="http://www.inkscape.org/namespaces/inkscape"
   xmlns:sodipodi="http://sodipodi.sourceforge.net/DTD/sodipodi-0.dtd"
   xmlns="http://www.w3.org/2000/svg"
   xmlns:svg="http://www.w3.org/2000/svg"><sodipodi:namedview
     id="namedview7"
     pagecolor="#ffffff"
     bordercolor="#000000"
     borderopacity="0.25"
     inkscape:showpageshadow="2"
     inkscape:pageopacity="0.0"
     inkscape:pagecheckerboard="0"
     inkscape:deskcolor="#d1d1d1"
     inkscape:document-units="px"
     showgrid="false"
     inkscape:zoom="0.70710678"
     inkscape:cx="-121.62237"
     inkscape:cy="92.630988"
     inkscape:window-width="1920"
     inkscape:window-height="1009"
     inkscape:window-x="1912"
     inkscape:window-y="-8"
     inkscape:window-maximized="1"
     inkscape:current-layer="layer1" /><defs
     id="defs2" /><g
     inkscape:label="Main"
     inkscape:groupmode="layer"
     id="layer1"
     style="display:inline"><rect
       style="opacity:1;fill:#8d5fd3;fill-opacity:1;stroke:none;stroke-width:0.529167;paint-order:stroke markers fill"
       id="rect5"
       width="67.73333"
       height="67.73333"
       x="0"
       y="0"
       ry="0" /><path
       id="path1"
       style="opacity:1;fill:#f9f9f9;fill-opacity:1;stroke:none;stroke-width:1.31387;stroke-linecap:round;stroke-linejoin:round;stroke-dasharray:none;stroke-opacity:1"
       inkscape:label="caminho"
       inkscape:transform-center-x="-0.054728299"
       inkscape:transform-center-y="-7.536917"
       d="M 22.706009,8.2037805 C 2.4280029,36.176388 15.032386,42.66209 20.79122,43.099956 c -2.757039,0 -4.583995,0.200654 -6.819229,0.661373 0.835414,2.365339 4.949877,6.752394 8.44523,6.752394 -1.250921,0 -3.133295,2.421582 -3.133295,4.027593 2.88288,0 7.059419,-0.555352 9.936563,2.321791 1.29615,1.29615 2.120674,2.664937 4.63859,2.666441 h 0.004 c 2.517918,-0.0015 3.342441,-1.370291 4.638592,-2.666441 2.877143,-2.877143 7.053683,-2.321791 9.936561,-2.321791 0,-1.606011 -1.882372,-4.027593 -3.133294,-4.027593 3.495354,0 7.609816,-4.387055 8.44523,-6.752394 C 51.514927,43.30061 49.687969,43.099956 46.930931,43.099956 52.689765,42.66209 65.294147,36.176388 45.016141,8.2037805 42.193212,18.739093 42.373592,27.838811 42.531252,31.925439 42.339139,29.177558 39.134601,23.845942 34.709489,21.753955 c 2.603668,4.336766 3.001119,9.273814 3.001119,11.857836 0,-1.90051 -1.058111,-3.970734 -3.851527,-3.970734 l -4.99e-4,3.82609 c -0.567865,-1.715316 -3.060792,-1.616148 -3.847039,0.144644 0,-2.584022 0.397451,-7.52107 3.001119,-11.857836 -4.425113,2.091987 -7.629651,7.423603 -7.821762,10.171484 0.157657,-4.086629 0.338036,-13.186346 -2.484891,-23.7216585 z"
       sodipodi:nodetypes="cccccssssccccccccccccccc" /></g></svg>
