<?xml version="1.0" encoding="UTF-8" standalone="no"?>
<!-- Created with Inkscape (http://www.inkscape.org/) -->

<svg
   width="255.99998"
   height="255.99998"
   viewBox="0 0 67.733328 67.733329"
   version="1.1"
   id="svg5"
   xml:space="preserve"
   inkscape:export-filename="favicon.svg"
   inkscape:export-xdpi="96"
   inkscape:export-ydpi="96"
   inkscape:version="1.3.1 (91b66b0, 2023-11-16)"
   sodipodi:docname="transicon.svg"
   xmlns:inkscape="http://www.inkscape.org/namespaces/inkscape"
   xmlns:sodipodi="http://sodipodi.sourceforge.net/DTD/sodipodi-0.dtd"
   xmlns="http://www.w3.org/2000/svg"
   xmlns:svg="http://www.w3.org/2000/svg"><sodipodi:namedview
     id="namedview7"
     pagecolor="#ffffff"
     bordercolor="#000000"
     borderopacity="0.25"
     inkscape:showpageshadow="2"
     inkscape:pageopacity="0.0"
     inkscape:pagecheckerboard="0"
     inkscape:deskcolor="#d1d1d1"
     inkscape:document-units="px"
     showgrid="false"
     inkscape:zoom="2"
     inkscape:cx="66.75"
     inkscape:cy="113"
     inkscape:window-width="1920"
     inkscape:window-height="998"
     inkscape:window-x="0"
     inkscape:window-y="0"
     inkscape:window-maximized="1"
     inkscape:current-layer="layer1" /><defs
     id="defs2" /><g
     inkscape:label="Main"
     inkscape:groupmode="layer"
     id="layer1"
     style="display:inline"><path
       id="path1"
       style="opacity:1;fill:#67ee8b;fill-opacity:1;stroke:none;stroke-width:1.72121;stroke-linecap:round;stroke-linejoin:round;stroke-dasharray:none;stroke-opacity:1"
       inkscape:label="caminho"
       inkscape:transform-center-x="-0.071697698"
       inkscape:transform-center-y="-9.8736258"
       d="M 19.258612,0.25264002 C -7.3062879,36.897736 9.2058964,45.394232 16.75017,45.967851 c -3.611818,0 -6.005196,0.262864 -8.9334296,0.866421 1.0944217,3.098679 6.4845116,8.845872 11.0635456,8.845872 -1.63875,0 -4.104724,3.172359 -4.104724,5.276289 3.776673,0 9.248085,-0.727531 13.017244,3.041626 1.698002,1.698005 2.778156,3.491162 6.076716,3.493131 h 0.0052 c 3.298561,-0.0019 4.378717,-1.795126 6.076717,-3.493131 3.769159,-3.769157 9.240572,-3.041626 13.017244,-3.041626 0,-2.10393 -2.465974,-5.276289 -4.104724,-5.276289 4.579035,0 9.969124,-5.747193 11.063547,-8.845872 C 56.999302,46.230715 54.605924,45.967851 50.994107,45.967851 58.538381,45.394232 75.050565,36.897736 48.485665,0.25264002 44.787529,14.054268 45.023834,25.975217 45.230373,31.328843 c -0.251671,-3.599821 -4.44973,-10.584424 -10.246782,-13.325 3.410895,5.681315 3.931571,12.14902 3.931571,15.534179 0,-2.489734 -1.386163,-5.201801 -5.045636,-5.201801 l -6.53e-4,5.012313 c -0.743921,-2.247124 -4.009745,-2.117209 -5.039756,0.189488 0,-3.385159 0.520676,-9.852864 3.931572,-15.534179 -5.797054,2.740576 -9.99511,9.725179 -10.246783,13.325 0.206537,-5.353627 0.44284,-17.274575 -3.255294,-31.07620298 z M 17.425795,46.005094 c 5.319721,0.379592 9.052477,5.059823 15.116651,4.771857 -1.853828,0.643912 -2.724365,0.64557 -4.023047,0.64557 0.89019,0.852027 1.29974,2.279325 1.166337,4.224299 1.117781,-0.491015 2.966543,-0.744418 4.186401,-0.744418 1.219855,0 3.06862,0.253403 4.1864,0.744418 -0.133403,-1.944974 0.276145,-3.372272 1.166338,-4.224299 -1.298684,0 -2.16922,-0.0016 -4.023048,-0.64557 6.064175,0.287966 9.796929,-4.392265 15.116651,-4.771857 -3.28629,0.357018 -5.87489,3.219601 -8.390444,4.517028 1.088131,0.02764 2.385434,0.349906 3.89106,1.012787 -0.930364,0.302464 -1.638753,0.265937 -1.638753,0.265937 0,0 -2.339455,2.990469 -5.29916,2.594039 0,0 0.0121,1.011483 -0.822644,1.251935 1.554111,-0.351222 2.964755,0.335905 1.612616,2.872391 0.190714,-1.51197 -0.271342,-2.571269 -1.612616,-2.872391 -2.207865,0.635983 -3.316154,1.589468 -4.1864,3.554553 -0.870248,-1.965085 -1.978536,-2.91857 -4.186401,-3.554553 -1.341273,0.301122 -1.80333,1.360421 -1.612616,2.872391 -1.352139,-2.536486 0.05851,-3.223613 1.612616,-2.872391 -0.83474,-0.240452 -0.822644,-1.251935 -0.822644,-1.251935 -2.959704,0.39643 -5.299159,-2.594039 -5.299159,-2.594039 0,0 -0.708392,0.03653 -1.638754,-0.265937 1.505626,-0.662881 2.802929,-0.985135 3.89106,-1.012787 -2.515553,-1.297427 -5.104155,-4.16001 -8.390444,-4.517028 z m 12.384743,10.861643 c 0.70554,0.01486 1.341573,0.797601 1.231678,2.320913 -0.406404,-1.284433 -1.338425,-1.904993 -2.23597,-1.789691 0.298985,-0.362467 0.659727,-0.538398 1.004292,-0.531222 z m 8.123198,0 c 0.344564,-0.0072 0.705306,0.168755 1.004292,0.531222 -0.897548,-0.115302 -1.829567,0.505258 -2.235971,1.789691 -0.109895,-1.523312 0.526136,-2.306043 1.231679,-2.320913 z m -12.961704,0.160086 c 0.550383,0.876442 2.604585,2.728834 3.265092,3.030518 0.0505,1.271275 0.67639,2.761991 1.036962,2.935118 0.505725,0.242825 1.665545,-0.706336 1.665545,-0.706336 0.641642,0.208742 2.086903,0.476906 2.932506,0.476906 0.845601,0 2.290863,-0.268164 2.932506,-0.476906 0,0 1.159818,0.949161 1.665543,0.706336 0.360573,-0.173127 0.986461,-1.663843 1.036962,-2.935118 0.660508,-0.301684 2.71471,-2.154076 3.265094,-3.030518 -0.776134,2.065991 -2.984127,4.235405 -2.984127,4.235405 -0.07169,0.887096 -0.5756,2.429555 -1.227759,2.63978 -0.420438,0.13553 -1.345859,-0.607226 -1.715855,-0.876224 -0.716109,0.321225 -2.108127,0.529262 -2.972364,0.529262 -0.864237,0 -2.256257,-0.208037 -2.972364,-0.529262 -0.369997,0.268998 -1.295418,1.011754 -1.715856,0.876224 -0.65216,-0.210225 -1.156076,-1.752684 -1.227759,-2.63978 0,0 -2.207992,-2.169414 -2.984126,-4.235405 z"
       sodipodi:nodetypes="cccccsssscccccccccccccccccccccccccccccccccccccccccccccccccscccscccsczcscc" /><rect
       style="fill:#67ee8b;fill-opacity:0;stroke-width:0.264583;opacity:0"
       id="rect1"
       width="67.73333"
       height="67.73333"
       x="0"
       y="0" /></g></svg>
