<?xml version="1.0" encoding="UTF-8" standalone="no"?>
<!-- Created with Inkscape (http://www.inkscape.org/) -->

<svg
   width="1280"
   height="1280"
   viewBox="0 0 338.66666 338.66666"
   version="1.1"
   id="svg1"
   inkscape:export-filename="back1.svg"
   inkscape:export-xdpi="96"
   inkscape:export-ydpi="96"
   xmlns:inkscape="http://www.inkscape.org/namespaces/inkscape"
   xmlns:sodipodi="http://sodipodi.sourceforge.net/DTD/sodipodi-0.dtd"
   xmlns="http://www.w3.org/2000/svg"
   xmlns:svg="http://www.w3.org/2000/svg">
  <sodipodi:namedview
     id="namedview1"
     pagecolor="#181726"
     bordercolor="#000000"
     borderopacity="0.25"
     inkscape:showpageshadow="2"
     inkscape:pageopacity="0.0"
     inkscape:pagecheckerboard="0"
     inkscape:deskcolor="#d1d1d1"
     inkscape:document-units="px"
     inkscape:zoom="0.25606581"
     inkscape:cx="156.20985"
     inkscape:cy="771.28612"
     inkscape:window-width="1920"
     inkscape:window-height="1009"
     inkscape:window-x="1912"
     inkscape:window-y="-8"
     inkscape:window-maximized="1"
     inkscape:current-layer="layer1" />
  <defs
     id="defs1" />
  <g
     inkscape:label="Camada 1"
     inkscape:groupmode="layer"
     id="layer1">
    <circle
       style="opacity:0.0592;fill:#9b2aff;fill-opacity:1;stroke-width:0.188286;paint-order:stroke markers fill"
       id="path6"
       cx="338.66666"
       cy="169.33333"
       r="121.49887" />
    <circle
       style="opacity:0.0592;fill:#9b2aff;fill-opacity:1;stroke-width:0.226157;paint-order:stroke markers fill"
       id="circle6"
       cx="338.66666"
       cy="169.33333"
       r="145.93604" />
    <circle
       style="opacity:0.0592;fill:#9b2aff;fill-opacity:1;stroke-width:0.262415;paint-order:stroke markers fill"
       id="circle7"
       cx="338.66666"
       cy="169.33333"
       r="169.33333" />
    <circle
       style="opacity:0.0592;fill:#9b2aff;fill-opacity:1;stroke-width:0.144776;paint-order:stroke markers fill"
       id="circle8"
       cx="338.66666"
       cy="169.33333"
       r="93.422104" />
    <circle
       style="opacity:0.0592;fill:#9b2aff;fill-opacity:1;stroke-width:0.301158;paint-order:stroke markers fill"
       id="circle9"
       cx="338.66666"
       cy="169.33333"
       r="194.33372" />
    <circle
       style="opacity:0.0464;fill:#ff2a8f;fill-opacity:1;stroke-width:0.165419;paint-order:stroke markers fill"
       id="circle20"
       cx="-106.74291"
       cy="169.33333"
       r="106.74291" />
    <circle
       style="opacity:0.0464;fill:#ff2a8f;fill-opacity:1;stroke-width:0.19869;paint-order:stroke markers fill"
       id="circle21"
       cx="-106.74291"
       cy="169.33333"
       r="128.2122" />
    <circle
       style="opacity:0.0464;fill:#ff2a8f;fill-opacity:1;stroke-width:0.230545;paint-order:stroke markers fill"
       id="circle22"
       cx="-106.74291"
       cy="169.33333"
       r="148.76791" />
    <circle
       style="opacity:0.0464;fill:#ff2a8f;fill-opacity:1;stroke-width:0.264583;paint-order:stroke markers fill"
       id="circle24"
       cx="-106.74291"
       cy="169.33333"
       r="170.73203" />
    <path
       id="path28"
       style="color:#000000;fill:#db338f;stroke-linecap:round;stroke-linejoin:round;-inkscape-stroke:none;paint-order:stroke markers fill"
       d="m 226.83008,125.14223 v 5.2e-4 l -32.83004,24.29877 a 0.13230489,0.13230489 0 0 0 -0.008,0.0186 0.13229166,0.13229166 0 0 0 -0.0393,0.0961 0.13230489,0.13230489 0 0 0 -0.003,0.0155 0.13229166,0.13229166 0 0 0 -0.001,0.005 0.13229166,0.13229166 0 0 0 0.0786,0.0868 0.13230489,0.13230489 0 0 0 0.009,0.0109 l 27.46292,8.71471 a 0.13230489,0.13230489 0 0 0 0.10129,-0.0103 l 20.37653,-10.95953 10.32702,3.29799 12.85141,20.10161 -15.3262,31.82235 a 0.13230489,0.13230489 0 0 0 -0.003,0.0176 0.13230489,0.13230489 0 0 0 -5.1e-4,0.005 0.13230489,0.13230489 0 0 0 -0.008,0.0476 l 4.15065,42.0212 a 0.13230489,0.13230489 0 0 0 0.0191,0.0465 0.13229166,0.13229166 0 0 0 -0.002,0.006 0.13229166,0.13229166 0 0 0 0.005,0.002 0.13230489,0.13230489 0 0 0 0.007,0.016 l 27.0645,33.63671 a 0.13230489,0.13230489 0 0 0 0.0356,0.0238 0.13230489,0.13230489 0 0 0 0.016,0.0109 0.13230489,0.13230489 0 0 0 0.015,0.0103 l 63.11914,17.62114 a 0.13230489,0.13230489 0 0 0 0.002,-10e-4 0.13229166,0.13229166 0 0 0 0.10128,-0.0145 0.13229166,0.13229166 0 0 0 0.0491,-0.0563 0.13230489,0.13230489 0 0 0 0.002,-5.1e-4 l 18.45727,-38.83587 a 0.13230489,0.13230489 0 0 0 -0.092,-0.18552 l -48.11489,-10.45518 -26.52758,-21.04109 -6.67401,-21.36924 13.77746,-27.46034 a 0.13230489,0.13230489 0 0 0 0,-5.1e-4 0.13230489,0.13230489 0 0 0 0,-5.2e-4 0.13230489,0.13230489 0 0 0 0.0119,-0.0749 0.13230489,0.13230489 0 0 0 -5.2e-4,-0.006 0.13230489,0.13230489 0 0 0 -0.0114,-0.0357 l -12.96872,-26.53688 a 0.13230489,0.13230489 0 0 0 -0.002,-0.002 0.13229166,0.13229166 0 0 0 -0.0336,-0.0429 0.13229166,0.13229166 0 0 0 -0.002,-5.2e-4 0.13230489,0.13230489 0 0 0 -0.004,-0.005 L 257.48815,132.1542 a 0.13230489,0.13230489 0 0 0 -0.12092,-0.0176 l -14.85232,5.18522 -15.52464,-12.17549 a 0.13230489,0.13230489 0 0 0 -0.16019,-0.004 z m 0.076,0.27337 15.31276,12.0096 -14.67869,5.12424 -32.90445,6.75049 z m 30.3103,7.05538 -4.91598,17.96583 -24.31221,-7.76283 z m 0.27181,0.009 6.06372,4.37131 18.19217,13.11341 -29.17962,0.50385 z m -29.92582,10.33477 14.06633,4.49223 -20.10317,10.81175 -26.92187,-8.54367 z m 54.29798,7.41092 -16.53956,20.35845 -12.69173,-19.85202 z m 0.25321,0.10645 12.76047,26.11262 -29.32535,-5.72316 z m -16.57056,20.65766 29.37133,5.73246 -8.50025,16.94419 -5.1015,10.16889 z m -0.23461,0.12454 15.78508,32.87706 -30.93868,-1.41594 z m -14.84147,31.73914 30.74386,1.40819 6.57065,21.04057 z m -0.3607,0.092 37.64111,22.64461 -33.5349,18.91564 z m 37.73878,22.89369 -6.7722,52.19268 -26.77097,-33.27239 z m 0.26716,0.004 26.27954,20.84473 -33.04967,31.31746 z m 26.75289,21.03076 47.6834,10.36009 -18.27899,38.46225 z m -0.30075,0.0145 29.43437,48.87247 -62.57292,-17.46922 z" />
  </g>
</svg>
