<?xml version="1.0" encoding="UTF-8" standalone="no"?>
<!-- Created with Inkscape (http://www.inkscape.org/) -->

<svg
   width="1280"
   height="1280"
   viewBox="0 0 338.66666 338.66666"
   version="1.1"
   id="svg1"
   inkscape:export-filename="back2.svg"
   inkscape:export-xdpi="96"
   inkscape:export-ydpi="96"
   sodipodi:docname="backerror.svg"
   inkscape:version="1.3.2 (091e20e, 2023-11-25, custom)"
   xmlns:inkscape="http://www.inkscape.org/namespaces/inkscape"
   xmlns:sodipodi="http://sodipodi.sourceforge.net/DTD/sodipodi-0.dtd"
   xmlns="http://www.w3.org/2000/svg"
   xmlns:svg="http://www.w3.org/2000/svg">
  <sodipodi:namedview
     id="namedview1"
     pagecolor="#181726"
     bordercolor="#000000"
     borderopacity="0.25"
     inkscape:showpageshadow="2"
     inkscape:pageopacity="0.0"
     inkscape:pagecheckerboard="0"
     inkscape:deskcolor="#d1d1d1"
     inkscape:document-units="px"
     inkscape:zoom="0.36213174"
     inkscape:cx="237.48263"
     inkscape:cy="492.91454"
     inkscape:window-width="1920"
     inkscape:window-height="1009"
     inkscape:window-x="1912"
     inkscape:window-y="-8"
     inkscape:window-maximized="1"
     inkscape:current-layer="layer1" />
  <defs
     id="defs1" />
  <g
     inkscape:label="Camada 1"
     inkscape:groupmode="layer"
     id="layer1">
    <circle
       style="opacity:0.0944;fill:#ec2159;fill-opacity:1;stroke-width:0.188286;paint-order:stroke markers fill"
       id="path6"
       cx="338.66666"
       cy="169.33333"
       r="121.49887" />
    <circle
       style="opacity:0.0944;fill:#ec2159;fill-opacity:1;stroke-width:0.226157;paint-order:stroke markers fill"
       id="circle6"
       cx="338.66666"
       cy="169.33333"
       r="145.93604" />
    <circle
       style="opacity:0.0944;fill:#ec2159;fill-opacity:1;stroke-width:0.262415;paint-order:stroke markers fill"
       id="circle7"
       cx="338.66666"
       cy="169.33333"
       r="169.33333" />
    <circle
       style="opacity:0.0944;fill:#ec2159;fill-opacity:1;stroke-width:0.144776;paint-order:stroke markers fill"
       id="circle8"
       cx="338.66666"
       cy="169.33333"
       r="93.422104" />
    <circle
       style="opacity:0.0944;fill:#ec2159;fill-opacity:1;stroke-width:0.301158;paint-order:stroke markers fill"
       id="circle9"
       cx="338.66666"
       cy="169.33333"
       r="194.33372" />
    <circle
       style="opacity:0.1552;fill:#ef435a;fill-opacity:1;stroke-width:0.165419;paint-order:stroke markers fill"
       id="circle20"
       cx="-106.74291"
       cy="169.33333"
       r="106.74291" />
    <circle
       style="opacity:0.1552;fill:#ef435a;fill-opacity:1;stroke-width:0.19869;paint-order:stroke markers fill"
       id="circle21"
       cx="-106.74291"
       cy="169.33333"
       r="128.2122" />
    <circle
       style="opacity:0.1552;fill:#ef435a;fill-opacity:1;stroke-width:0.230545;paint-order:stroke markers fill"
       id="circle22"
       cx="-106.74291"
       cy="169.33333"
       r="148.76791" />
    <circle
       style="opacity:0.1552;fill:#ef435a;fill-opacity:1;stroke-width:0.264583;paint-order:stroke markers fill"
       id="circle24"
       cx="-106.74291"
       cy="169.33333"
       r="170.73203" />
    <path
       id="path1-0"
       style="display:inline;fill:none;fill-opacity:1;stroke:#e44658;stroke-width:0.26458333;stroke-linecap:round;stroke-linejoin:round;stroke-dasharray:none;stroke-opacity:1"
       inkscape:label="caminho"
       inkscape:transform-center-x="-0.099715571"
       inkscape:transform-center-y="-13.752849"
       d="m 241.38553,128.19536 c -37.00193,51.0425 -14.0023,62.87716 -3.49398,63.67616 -5.03086,0 -8.36457,0.36613 -12.44327,1.20682 1.5244,4.31611 9.03221,12.32129 15.41028,12.32129 -2.28259,0 -5.71741,4.41874 -5.71741,7.3493 5.26049,0 12.88153,-1.01339 18.13156,4.23664 2.36514,2.36513 3.86966,4.86278 8.46418,4.86554 h 0.007 c 4.59453,-0.002 6.09906,-2.50041 8.46418,-4.86554 5.25001,-5.25003 12.87109,-4.23664 18.13156,-4.23664 0,-2.93056 -3.43482,-7.3493 -5.71742,-7.3493 6.37808,0 13.88589,-8.00518 15.4103,-12.32129 -4.07873,-0.84069 -7.41242,-1.20682 -12.44329,-1.20682 10.50831,-0.799 33.50796,-12.63366 -3.49399,-63.67616 -5.15109,19.2241 -4.82194,35.82866 -4.53425,43.28565 -0.35055,-5.01414 -6.19797,-14.74292 -14.27262,-18.56023 4.751,7.91344 5.47624,16.92223 5.47624,21.63737 0,-3.46792 -1.93076,-7.24551 -7.028,-7.24551 l -0.002,6.98158 c -1.0362,-3.13 -5.58513,-2.94904 -7.01982,0.26393 0,-4.71514 0.72524,-13.72393 5.47624,-21.63737 -8.07464,3.81731 -13.92207,13.54609 -14.27262,18.56023 0.28769,-7.45699 0.61684,-24.06155 -4.53425,-43.28565 z"
       sodipodi:nodetypes="cccccssssccccccccccccccc" />
    <rect
       style="opacity:1;fill:none;fill-opacity:1;stroke:none;stroke-width:0.264583;stroke-dasharray:none;stroke-opacity:1;paint-order:stroke markers fill"
       id="rect1"
       width="338.66666"
       height="338.66666"
       x="0"
       y="0" />
    <path
       style="opacity:1;fill:#ef435a;fill-opacity:1;stroke:#e44658;stroke-width:0.264583;stroke-opacity:1;paint-order:stroke markers fill"
       d="m 244.61172,189.81709 15.36979,15.3698"
       id="path1" />
    <path
       style="opacity:1;fill:#ef435a;fill-opacity:1;stroke:#e44658;stroke-width:0.264583;stroke-opacity:1;paint-order:stroke markers fill"
       d="m 259.98151,189.81709 -15.36979,15.3698"
       id="path2" />
    <path
       style="opacity:1;fill:#ef435a;fill-opacity:1;stroke:#e44658;stroke-width:0.264583;stroke-opacity:1;paint-order:stroke markers fill"
       d="m 262.2381,189.81709 15.36979,15.3698"
       id="path3" />
    <path
       style="opacity:1;fill:#ef435a;fill-opacity:1;stroke:#e44658;stroke-width:0.264583;stroke-opacity:1;paint-order:stroke markers fill"
       d="m 277.60789,189.81709 -15.36979,15.3698"
       id="path4" />
  </g>
</svg>
