<?xml version="1.0" encoding="UTF-8" standalone="no"?>
<!-- Created with Inkscape (http://www.inkscape.org/) -->

<svg
   width="1280"
   height="1280"
   viewBox="0 0 338.66666 338.66666"
   version="1.1"
   id="svg1"
   xml:space="preserve"
   inkscape:version="1.3 (0e150ed6c4, 2023-07-21)"
   sodipodi:docname="banner.svg"
   xmlns:inkscape="http://www.inkscape.org/namespaces/inkscape"
   xmlns:sodipodi="http://sodipodi.sourceforge.net/DTD/sodipodi-0.dtd"
   xmlns="http://www.w3.org/2000/svg"
   xmlns:svg="http://www.w3.org/2000/svg"><sodipodi:namedview
     id="namedview1"
     pagecolor="#ffffff"
     bordercolor="#000000"
     borderopacity="0.25"
     inkscape:showpageshadow="2"
     inkscape:pageopacity="0.0"
     inkscape:pagecheckerboard="0"
     inkscape:deskcolor="#d1d1d1"
     inkscape:document-units="px"
     inkscape:zoom="0.4894542"
     inkscape:cx="706.90987"
     inkscape:cy="642.55247"
     inkscape:window-width="1920"
     inkscape:window-height="991"
     inkscape:window-x="-9"
     inkscape:window-y="-9"
     inkscape:window-maximized="1"
     inkscape:current-layer="layer1-8" /><defs
     id="defs1" /><g
     inkscape:label="Camada 1"
     inkscape:groupmode="layer"
     id="layer1"><g
       inkscape:label="Camada 1"
       id="layer1-8"
       style="display:inline"
       transform="matrix(5.0000001,0,0,5.0000001,-5.4541017e-6,-5.4541017e-6)"><rect
         style="opacity:1;fill:#7f2aff;fill-opacity:1;stroke-width:0.264583;stroke-linecap:round"
         id="rect4532"
         width="67.73333"
         height="67.73333"
         x="1.3635254e-06"
         y="1.3635254e-06" /><path
         id="path8519"
         style="opacity:1;fill:#ffffff;fill-opacity:1;stroke:none;stroke-width:0.513618;stroke-linecap:round;stroke-linejoin:round;stroke-dasharray:none;stroke-opacity:1"
         inkscape:transform-center-x="-0.024081645"
         inkscape:transform-center-y="-2.6189749"
         d="m 17.505165,25.864491 c -1.028849,1.219513 -1.890543,2.802714 -2.074291,4.581232 -1.643272,-1.950075 -3.968173,-2.845151 -6.387316,-3.759041 2.177748,3.935692 0.3979,8.656957 4.207655,10.777881 -0.453563,0.005 -1.235345,0.03489 -1.874731,0.270718 1.353239,1.910332 2.25219,2.500365 3.679673,2.353678 -0.48023,0.03777 -1.344197,0.285894 -1.913959,1.185505 1.230278,-0.479493 2.033976,-0.68004 3.114061,0.103087 1.120942,0.812758 0.808569,1.452691 1.949082,1.792171 0.277039,0.08246 0.717051,0.07389 0.717051,0.07389 0,0 0.439784,0.0086 0.716822,-0.07389 1.140513,-0.33948 0.827912,-0.979413 1.948854,-1.792171 1.080085,-0.783127 1.883783,-0.58258 3.114062,-0.103087 -0.569762,-0.899611 -1.433277,-1.147731 -1.913504,-1.185505 1.42748,0.146687 2.326207,-0.443346 3.679445,-2.353678 -0.639283,-0.235786 -1.420906,-0.26569 -1.874503,-0.270718 3.809673,-2.120941 2.029695,-6.842211 4.207427,-10.777881 -2.419282,0.913943 -4.744113,1.809174 -6.387315,3.759497 -0.18365,-1.778701 -1.045584,-3.362071 -2.07452,-4.581688 0.531096,3.284599 0.670076,4.50903 -0.04721,6.889523 -0.0274,-0.242091 -0.03528,-0.45079 -0.03695,-0.867348 -0.302364,0.09523 -0.608343,0.306601 -0.806454,0.644981 0.04344,-0.217218 -0.0084,-0.703982 0.0062,-1.413575 -1.160675,0.214709 -1.740392,0.82331 -2.002906,1.292698 -0.603628,-2.163938 -0.451791,-3.422074 0.05337,-6.546279 z M 16.53587,37.778614 c 0.634249,0.0023 1.171191,0.297671 1.486101,1.234313 -0.84256,-0.45756 -1.793292,-0.804071 -2.981553,-0.906576 0.517887,-0.17501 1.032622,-0.329419 1.495452,-0.327737 z m 4.772811,0 c 0.462829,-0.0016 0.977566,0.152727 1.495452,0.327737 -1.188259,0.102505 -2.138994,0.449016 -2.981553,0.906576 0.31491,-0.936641 0.851853,-1.232007 1.486101,-1.234313 z m 1.66696,0.324088 0.0023,0.0036 -0.003,0.003 a 4.1138725,4.7221189 0 0 0 6.92e-4,-0.0066 z m -8.106959,4.32e-4 a 4.1138725,4.7221189 0 0 0 7.35e-4,0.0057 l -0.0025,-0.0025 z m 2.900816,2.608659 c 0.235533,-0.0054 0.481718,0.152356 0.504946,0.631753 -0.249611,-0.233257 -0.531287,-0.409814 -0.883313,-0.462069 0.08078,-0.09574 0.227385,-0.166249 0.378367,-0.169684 z m 2.28731,0 c 0.15728,-0.0021 0.312369,0.07012 0.396384,0.169684 -0.352025,0.05226 -0.633702,0.228813 -0.883313,0.462069 0.02263,-0.467104 0.257056,-0.628722 0.486929,-0.631753 z" /><g
         id="g8750"
         transform="matrix(1.0206311,0,0,1.0206311,1.90187,-0.69870458)" /><g
         id="g8822"
         transform="matrix(0.390585,0,0,0.52030037,20.721262,26.844857)"><g
           id="g8828"
           transform="translate(-0.26976784)" /></g><path
         id="path1"
         style="opacity:0.5915493;fill:none;fill-opacity:1;stroke:#ffffff;stroke-width:0.228953;stroke-linecap:round;stroke-linejoin:round;stroke-dasharray:none;stroke-opacity:1"
         inkscape:transform-center-x="-0.041715772"
         inkscape:transform-center-y="-4.537211"
         d="m -2.4216798,19.367793 c -1.7824186,2.112729 -3.275248,4.855526 -3.5935804,7.936697 -2.8468658,-3.378383 -6.8746098,-4.929047 -11.0656238,-6.512303 3.772813,6.81834 0.689338,14.997634 7.2894975,18.672003 -0.7857685,0.0086 -2.1401575,0.06044 -3.2478525,0.469001 2.344402,3.309531 3.9017772,4.331726 6.3748012,4.077599 -0.8319669,0.06544 -2.3287349,0.495294 -3.3158121,2.053814 2.1313781,-0.830692 3.5237349,-1.178126 5.3949135,0.178591 1.9419614,1.408054 1.4007954,2.516697 3.3766636,3.104824 0.47995195,0.142858 1.24224568,0.12801 1.24224568,0.12801 0,0 0.76189792,0.01489 1.24185002,-0.12801 1.9758646,-0.588127 1.434305,-1.69677 3.3762657,-3.104824 C 6.5228694,44.886478 7.915225,45.233912 10.046606,46.064604 9.0595293,44.506084 7.5635434,44.076232 6.7315802,44.01079 9.2046003,44.264917 10.761588,43.242722 13.105988,39.933191 11.99847,39.524707 10.644358,39.4729 9.8585295,39.46419 16.458549,35.789792 13.374848,27.610488 17.147631,20.792187 12.956379,22.375535 8.9287538,23.926467 6.0820106,27.305279 5.7638467,24.223792 4.2706013,21.480703 2.488034,19.367793 3.4081251,25.058154 3.6488989,27.179405 2.4062392,31.303459 2.3587677,30.884052 2.3451154,30.522494 2.3422357,29.800833 1.81841,29.965812 1.2883206,30.332 0.94510665,30.918221 1.0203634,30.541906 0.93055418,29.698618 0.95590352,28.469293 -1.0548937,28.841262 -2.0592173,29.895625 -2.5140059,30.708811 -3.5597531,26.959924 -3.2967046,24.780282 -2.4215454,19.367793 Z M -4.100924,40.008264 c 1.0987968,0.004 2.0290156,0.515695 2.5745774,2.13837 -1.4596833,-0.792695 -3.1067662,-1.393004 -5.1653553,-1.570587 0.8972083,-0.303195 1.7889544,-0.570697 2.5907779,-0.567783 z m 8.2685957,0 c 0.8018226,-0.0028 1.6935719,0.264588 2.5907764,0.567783 -2.058584,0.177583 -3.705673,0.777892 -5.1653526,1.570587 0.5455606,-1.622672 1.4757819,-2.134377 2.5745762,-2.13837 z m -11.1568926,0.56221 0.00132,0.0098 -0.00432,-0.0043 z m 5.0254813,4.519338 c 0.408045,-0.0094 0.8345449,0.263948 0.8747872,1.094473 -0.4324359,-0.404105 -0.9204234,-0.709978 -1.530286,-0.800507 0.1399472,-0.165863 0.3939308,-0.288016 0.6554988,-0.293966 z m 3.9626212,0 c 0.2724755,-0.0036 0.5411589,0.121477 0.6867098,0.293966 -0.6098614,0.09053 -1.0978489,0.396403 -1.5302837,0.800507 0.039206,-0.809229 0.4453326,-1.089223 0.8435739,-1.094473 z"
         sodipodi:nodetypes="ccccccccscccccccccccccccccsccsccccccccccccsccs" /><text
         xml:space="preserve"
         style="font-size:0.635px;opacity:0.591549;fill:none;fill-opacity:1;stroke:#ffffff;stroke-width:0.211667;stroke-dasharray:none;stroke-opacity:1"
         x="30.271812"
         y="38.596558"
         id="text1"><tspan
           sodipodi:role="line"
           id="tspan1"
           style="stroke-width:0.211667"
           x="30.271812"
           y="38.596558">Sam Mahonri</tspan></text></g></g></svg>
