<?xml version="1.0" encoding="UTF-8" standalone="no"?>
<!-- Created with Inkscape (http://www.inkscape.org/) -->

<svg
   width="256"
   height="256"
   viewBox="0 0 67.733332 67.733333"
   version="1.1"
   id="svg5"
   xml:space="preserve"
   inkscape:export-filename="..\..\SamMahonriWebsite\sam\static\circle.svg"
   inkscape:export-xdpi="96"
   inkscape:export-ydpi="96"
   inkscape:version="1.3.2 (091e20e, 2023-11-25, custom)"
   sodipodi:docname="logo.svg"
   xmlns:inkscape="http://www.inkscape.org/namespaces/inkscape"
   xmlns:sodipodi="http://sodipodi.sourceforge.net/DTD/sodipodi-0.dtd"
   xmlns:xlink="http://www.w3.org/1999/xlink"
   xmlns="http://www.w3.org/2000/svg"
   xmlns:svg="http://www.w3.org/2000/svg"><sodipodi:namedview
     id="namedview7"
     pagecolor="#ffffff"
     bordercolor="#000000"
     borderopacity="0.25"
     inkscape:showpageshadow="2"
     inkscape:pageopacity="0.0"
     inkscape:pagecheckerboard="0"
     inkscape:deskcolor="#d1d1d1"
     inkscape:document-units="px"
     showgrid="false"
     inkscape:zoom="2"
     inkscape:cx="172.5"
     inkscape:cy="128.75"
     inkscape:window-width="1920"
     inkscape:window-height="1009"
     inkscape:window-x="1912"
     inkscape:window-y="-8"
     inkscape:window-maximized="1"
     inkscape:current-layer="layer1" /><defs
     id="defs2"><linearGradient
       id="linearGradient17"
       inkscape:collect="always"><stop
         style="stop-color:#8d5fd3;stop-opacity:1;"
         offset="0"
         id="stop17" /><stop
         style="stop-color:#ff5599;stop-opacity:1"
         offset="1"
         id="stop18" /></linearGradient><linearGradient
       inkscape:collect="always"
       xlink:href="#linearGradient17"
       id="linearGradient18"
       x1="34.528126"
       y1="64.955208"
       x2="-3.7041667"
       y2="-33.337498"
       gradientUnits="userSpaceOnUse"
       gradientTransform="matrix(0.8451998,0,0,0.8451998,5.2335143,5.1006666)" /></defs><g
     inkscape:label="Camada 1"
     inkscape:groupmode="layer"
     id="layer1"
     style="display:inline"><g
       id="g8750"
       transform="matrix(1.0206311,0,0,1.0206311,1.90187,-0.69870458)" /><g
       id="g8822"
       transform="matrix(0.390585,0,0,0.52030037,20.721262,26.844857)"><g
         id="g8828"
         transform="translate(-0.26976784)" /></g><path
       id="path1"
       style="opacity:1;fill:url(#linearGradient18);fill-opacity:1;stroke:none;stroke-width:1.36125;stroke-linecap:round;stroke-linejoin:round;stroke-dasharray:none;stroke-opacity:1"
       inkscape:transform-center-x="-0.056702137"
       inkscape:transform-center-y="-7.8087779"
       d="M 22.305519,6.8694632 C 1.29601,35.851145 14.355365,42.570553 20.32194,43.024212 c 4.500499,0 7.491399,4.621856 12.48927,4.384524 -1.135416,0.823446 -2.174596,1.067412 -3.181565,0.954781 0.704031,0.673846 1.027942,1.802567 0.922437,3.340797 0.885677,-0.389057 2.351757,-0.589922 3.312809,-0.149904 0.961048,-0.440018 2.427129,-0.239153 3.312803,0.149904 -0.105503,-1.53823 0.218407,-2.666951 0.922439,-3.340797 -1.006965,0.112626 -2.046148,-0.131325 -3.181566,-0.954781 4.997875,0.237332 7.988771,-4.384524 12.489269,-4.384524 C 53.374414,42.570553 66.43377,35.851145 45.42426,6.8694632 42.499497,17.784823 42.686425,27.212757 42.849772,31.446804 42.650732,28.599797 39.330395,23.075599 34.74565,20.908147 c 2.697593,4.493208 3.109412,9.608637 3.109412,12.285876 0,-1.920009 -1.652874,-3.93979 -3.990171,-3.93979 v 3.799837 c -0.581209,-1.788779 -3.173862,-1.688167 -3.990173,0.139953 0,-2.677239 0.411817,-7.792668 3.109409,-12.285876 -4.584742,2.167452 -7.90508,7.69165 -8.104121,10.538657 0.163347,-4.234047 0.350275,-13.661981 -2.574487,-24.5773408 z M 47.407836,43.024212 c -2.863172,0.767183 -5.046033,3.531715 -7.169868,4.627108 0.860576,0.02187 1.886304,0.276887 3.077068,0.801142 -0.735805,0.239214 -1.29564,0.210242 -1.29564,0.210242 0,0 -1.850327,2.364903 -4.19108,2.051376 0,0 0.0094,0.800067 -0.650622,0.990234 -1.747803,0.503462 -2.624255,1.258069 -3.312803,2.815199 -0.688553,-1.55713 -1.565006,-2.311737 -3.312809,-2.815199 -0.660175,-0.190167 -0.650618,-0.990234 -0.650618,-0.990234 -2.340755,0.313527 -4.191081,-2.051376 -4.191081,-2.051376 0,0 -0.559837,0.02897 -1.295638,-0.210242 1.190761,-0.524255 2.216489,-0.779273 3.077065,-0.801142 -2.123833,-1.095393 -4.306693,-3.859925 -7.16987,-4.627108 -3.252009,0 -4.749506,0.208112 -7.065372,0.685452 0.865551,2.450665 5.128322,6.995708 8.749766,6.995708 -1.296048,0 -3.246251,2.509094 -3.246251,4.17304 2.986875,0 7.185885,-0.921258 10.261864,2.967597 1.167529,1.476067 2.23083,2.902279 4.842944,2.902279 2.612107,0 3.675412,-1.426212 4.842941,-2.902279 3.075976,-3.888855 7.274991,-2.967597 10.261864,-2.967597 0,-1.663946 -1.950203,-4.17304 -3.246253,-4.17304 3.621446,0 7.884216,-4.545043 8.749768,-6.995708 -2.315867,-0.47734 -3.813363,-0.685452 -7.065375,-0.685452 z M 30.65098,52.669047 c 0.557996,0.01176 1.060977,0.63079 0.974064,1.83554 -0.321414,-1.015826 -1.058517,-1.506255 -1.768365,-1.415065 0.23646,-0.286667 0.521795,-0.426151 0.794301,-0.420475 z m 6.427817,0 c 0.272509,-0.0057 0.557846,0.133804 0.794303,0.420475 -0.709849,-0.09121 -1.446951,0.399239 -1.768364,1.415065 -0.0869,-1.20475 0.416067,-1.823864 0.974061,-1.83554 z m -7.672451,2.787832 c 0.03994,1.00542 0.535256,1.92005 0.820426,2.056973 0.399964,0.192043 1.316789,-0.558559 1.316789,-0.558559 0.508323,0.165369 1.655126,0.31951 2.32133,0.353923 0.666199,-0.03442 1.813004,-0.188554 2.321325,-0.353923 0,0 0.916825,0.750602 1.316792,0.558559 0.285171,-0.136923 0.780476,-1.051553 0.820422,-2.056973 0.320441,0.745345 -0.251672,2.556876 -0.748892,2.776015 -0.31969,0.140896 -1.0646,-0.480171 -1.357221,-0.692914 -0.566823,0.254261 -1.670697,0.371403 -2.352426,0.41861 -0.68173,-0.04721 -1.785604,-0.164349 -2.352431,-0.41861 -0.29262,0.212743 -1.037528,0.83381 -1.357219,0.692914 -0.497218,-0.219139 -1.069333,-2.03067 -0.748895,-2.776015 z" /></g></svg>
