<?xml version="1.0" encoding="UTF-8" standalone="no"?>
<!-- Created with Inkscape (http://www.inkscape.org/) -->

<svg
   width="256"
   height="256"
   viewBox="0 0 67.733332 67.733333"
   version="1.1"
   id="svg5"
   xml:space="preserve"
   inkscape:export-filename="icon.png"
   inkscape:export-xdpi="96"
   inkscape:export-ydpi="96"
   inkscape:version="1.2.2 (732a01da63, 2022-12-09)"
   sodipodi:docname="logo.svg"
   xmlns:inkscape="http://www.inkscape.org/namespaces/inkscape"
   xmlns:sodipodi="http://sodipodi.sourceforge.net/DTD/sodipodi-0.dtd"
   xmlns="http://www.w3.org/2000/svg"
   xmlns:svg="http://www.w3.org/2000/svg"><sodipodi:namedview
     id="namedview7"
     pagecolor="#ffffff"
     bordercolor="#000000"
     borderopacity="0.25"
     inkscape:showpageshadow="2"
     inkscape:pageopacity="0.0"
     inkscape:pagecheckerboard="0"
     inkscape:deskcolor="#d1d1d1"
     inkscape:document-units="px"
     showgrid="false"
     inkscape:zoom="1.3026915"
     inkscape:cx="132.41815"
     inkscape:cy="98.258108"
     inkscape:window-width="1366"
     inkscape:window-height="697"
     inkscape:window-x="-8"
     inkscape:window-y="-8"
     inkscape:window-maximized="1"
     inkscape:current-layer="layer1" /><defs
     id="defs2" /><g
     inkscape:label="Camada 1"
     inkscape:groupmode="layer"
     id="layer1"
     style="display:inline"><rect
       style="opacity:1;fill:#7f2aff;fill-opacity:1;stroke-width:0.264583;stroke-linecap:round"
       id="rect4532"
       width="67.73333"
       height="67.73333"
       x="1.3635254e-06"
       y="1.3635254e-06" /><path
       id="path8519"
       style="opacity:1;fill:#ffffff;fill-opacity:1;stroke:none;stroke-width:1.18778;stroke-linecap:round;stroke-linejoin:round;stroke-dasharray:none;stroke-opacity:1"
       inkscape:transform-center-x="-0.055689146"
       inkscape:transform-center-y="-6.0565426"
       d="M 30.589506,13.771189 C 28.210225,16.591394 26.2175,20.25265 25.79257,24.36559 c -3.800173,-4.509677 -9.176659,-6.5796 -14.771085,-8.69303 5.036185,9.101546 0.920169,20.019781 9.730478,24.924556 -1.048896,0.01161 -2.856816,0.08069 -4.33544,0.626054 3.129455,4.417769 5.208337,5.782257 8.509486,5.443034 -1.110562,0.08735 -3.108544,0.66115 -4.426156,2.741558 2.845099,-1.108859 4.703704,-1.572637 7.20147,0.238397 2.592252,1.879555 1.869869,3.359442 4.507381,4.144511 0.64067,0.190703 1.658227,0.170886 1.658227,0.170886 0,0 1.017029,0.01982 1.657698,-0.170886 2.637512,-0.785069 1.914601,-2.264956 4.506852,-4.144511 2.497768,-1.811034 4.356372,-1.347256 7.201472,-0.238397 -1.317612,-2.080408 -3.314547,-2.654202 -4.425102,-2.741558 3.301141,0.339223 5.379505,-1.025265 8.508958,-5.443034 -1.478385,-0.545271 -3.285938,-0.614426 -4.334912,-0.626054 8.81012,-4.904815 4.693803,-15.823061 9.72995,-24.924556 -5.594747,2.113554 -10.971072,4.183834 -14.771084,8.694085 -0.424702,-4.113365 -2.417981,-7.775012 -4.797464,-10.595456 1.228194,7.595851 1.549596,10.427429 -0.109177,15.932476 -0.06336,-0.559852 -0.08159,-1.042484 -0.08545,-2.0058 -0.699238,0.220237 -1.406834,0.709035 -1.864978,1.491561 0.100451,-0.502333 -0.0195,-1.628005 0.01423,-3.268986 -2.684137,0.496529 -4.024773,1.903958 -4.631852,2.98945 -1.395929,-5.004248 -1.044796,-7.913771 0.123416,-15.138701 z m -2.241559,27.552192 c 1.466742,0.0053 2.708455,0.688383 3.436706,2.854428 -1.948475,-1.058137 -4.147106,-1.859467 -6.895036,-2.096516 1.197647,-0.404722 2.388006,-0.761803 3.45833,-0.757912 z m 11.037438,0 c 1.070324,-0.0038 2.260685,0.35319 3.458332,0.757912 -2.747928,0.237049 -4.946564,1.03838 -6.895037,2.096516 0.72825,-2.166043 1.969965,-2.849095 3.436705,-2.854428 z m 3.854955,0.749473 0.0053,0.0084 -0.0069,0.0069 a 9.5135998,10.92021 0 0 0 0.0016,-0.0153 z m -18.747874,10e-4 a 9.5135998,10.92021 0 0 0 0.0017,0.01319 l -0.0058,-0.0058 z m 6.708327,6.032696 c 0.544684,-0.01239 1.114003,0.352332 1.16772,1.460969 -0.577242,-0.539421 -1.228635,-0.947721 -2.042719,-1.068564 0.186819,-0.221403 0.525843,-0.384462 0.874999,-0.392405 z m 5.289553,0 c 0.363722,-0.0048 0.722374,0.162147 0.916666,0.392405 -0.814083,0.120843 -1.465478,0.529144 -2.04272,1.068564 0.05234,-1.080209 0.594459,-1.45396 1.126054,-1.460969 z" /><g
       id="g8750"
       transform="matrix(1.0206311,0,0,1.0206311,1.90187,-0.69870458)" /><g
       id="g8822"
       transform="matrix(0.390585,0,0,0.52030037,20.721262,26.844857)"><g
         id="g8828"
         transform="translate(-0.26976784)" /></g></g></svg>
