<?xml version="1.0" encoding="UTF-8" standalone="no"?>
<!-- Created with Inkscape (http://www.inkscape.org/) -->

<svg
   width="255.99998"
   height="255.99998"
   viewBox="0 0 67.733328 67.733329"
   version="1.1"
   id="svg5"
   xml:space="preserve"
   inkscape:export-filename="favicon.svg"
   inkscape:export-xdpi="96"
   inkscape:export-ydpi="96"
   inkscape:version="1.3.2 (091e20e, 2023-11-25, custom)"
   sodipodi:docname="transicon.svg"
   xmlns:inkscape="http://www.inkscape.org/namespaces/inkscape"
   xmlns:sodipodi="http://sodipodi.sourceforge.net/DTD/sodipodi-0.dtd"
   xmlns="http://www.w3.org/2000/svg"
   xmlns:svg="http://www.w3.org/2000/svg"><sodipodi:namedview
     id="namedview7"
     pagecolor="#ffffff"
     bordercolor="#000000"
     borderopacity="0.25"
     inkscape:showpageshadow="2"
     inkscape:pageopacity="0.0"
     inkscape:pagecheckerboard="0"
     inkscape:deskcolor="#d1d1d1"
     inkscape:document-units="px"
     showgrid="false"
     inkscape:zoom="2"
     inkscape:cx="74"
     inkscape:cy="125.25"
     inkscape:window-width="1920"
     inkscape:window-height="1009"
     inkscape:window-x="1912"
     inkscape:window-y="-8"
     inkscape:window-maximized="1"
     inkscape:current-layer="layer1" /><defs
     id="defs2" /><g
     inkscape:label="Main"
     inkscape:groupmode="layer"
     id="layer1"
     style="display:inline"><path
       id="path1"
       style="opacity:1;fill:#f9f9f9;fill-opacity:1;stroke:none;stroke-width:1.57942;stroke-linecap:round;stroke-linejoin:round;stroke-dasharray:none;stroke-opacity:1"
       inkscape:label="caminho"
       inkscape:transform-center-x="-0.065791509"
       inkscape:transform-center-y="-9.0602997"
       d="M 20.46238,1.3564486 C -3.9142736,34.982956 11.237743,42.779566 18.160567,43.305934 c -3.314299,0 -5.510525,0.241211 -8.1975502,0.795051 1.0042702,2.843429 5.9503592,8.117206 10.1522022,8.117206 -1.503761,0 -3.766604,2.91104 -3.766604,4.841662 3.465575,0 8.486288,-0.667602 11.944967,2.791076 1.558132,1.558134 2.54931,3.203583 5.576156,3.20539 h 0.0048 c 3.026846,-0.0018 4.018025,-1.647256 5.576156,-3.20539 3.458679,-3.458678 8.479393,-2.791076 11.944967,-2.791076 0,-1.930622 -2.262843,-4.841662 -3.766604,-4.841662 4.201844,0 9.147932,-5.273777 10.152203,-8.117206 -2.687026,-0.55384 -4.883252,-0.795051 -8.19755,-0.795051 C 56.506534,42.779566 71.65855,34.982956 47.281897,1.3564486 43.88839,14.021187 44.105229,24.960165 44.294755,29.872793 c -0.230941,-3.30329 -4.08319,-9.712547 -9.402718,-12.227372 3.129927,5.213325 3.607713,11.148262 3.607713,14.254574 0,-2.284646 -1.27198,-4.77331 -4.630009,-4.77331 l -5.99e-4,4.59943 c -0.682642,-2.06202 -3.679448,-1.942807 -4.624613,0.17388 0,-3.106312 0.477786,-9.041249 3.607714,-14.254574 -5.31953,2.514825 -9.171777,8.924082 -9.402719,12.227372 C 23.639048,24.960164 23.855886,14.021187 20.46238,1.3564486 Z M 18.780539,43.340109 c 4.881517,0.348324 8.306792,4.643028 13.871439,4.378782 -1.701122,0.590871 -2.499949,0.592392 -3.691655,0.592392 0.816863,0.781843 1.192676,2.091569 1.070262,3.876329 1.025705,-0.450569 2.722179,-0.683098 3.841552,-0.683098 1.119372,0 2.815847,0.232529 3.841552,0.683098 -0.122415,-1.78476 0.253398,-3.094486 1.070262,-3.876329 -1.191707,0 -1.990534,-0.0015 -3.691656,-0.592392 5.564648,0.264246 8.989922,-4.030458 13.871439,-4.378782 -3.015586,0.327609 -5.390954,2.954391 -7.699293,4.144944 0.998498,0.02537 2.188937,0.321083 3.570539,0.92936 -0.853726,0.27755 -1.503763,0.244031 -1.503763,0.244031 0,0 -2.146745,2.744134 -4.862649,2.380359 0,0 0.0111,0.928164 -0.754879,1.148809 1.426093,-0.32229 2.720536,0.308235 1.479779,2.635782 0.175004,-1.387424 -0.248991,-2.359465 -1.479779,-2.635782 -2.025996,0.583594 -3.042991,1.458538 -3.841552,3.261751 -0.798563,-1.803213 -1.815557,-2.678157 -3.841552,-3.261751 -1.230788,0.276317 -1.654784,1.248358 -1.47978,2.635782 -1.240757,-2.327547 0.05369,-2.958072 1.47978,-2.635782 -0.765979,-0.220645 -0.75488,-1.148809 -0.75488,-1.148809 -2.715903,0.363775 -4.862648,-2.380359 -4.862648,-2.380359 0,0 -0.650039,0.03352 -1.503764,-0.244031 1.381602,-0.608277 2.572041,-0.903986 3.570539,-0.92936 -2.308338,-1.190553 -4.683708,-3.817335 -7.699293,-4.144944 z m 11.364567,9.966931 c 0.647423,0.01364 1.231064,0.7319 1.130221,2.129731 -0.372927,-1.17863 -1.228174,-1.748072 -2.051786,-1.642267 0.274357,-0.33261 0.605384,-0.494049 0.921565,-0.487464 z m 7.454062,0 c 0.316181,-0.0066 0.647207,0.154854 0.921565,0.487464 -0.823614,-0.105805 -1.678859,0.463637 -2.051787,1.642267 -0.100842,-1.397831 0.482797,-2.116086 1.130222,-2.129731 z m -11.894002,0.146899 c 0.505046,0.804246 2.390035,2.50405 2.996134,2.780883 0.04634,1.166556 0.620673,2.534477 0.951544,2.693343 0.464067,0.222822 1.528348,-0.648153 1.528348,-0.648153 0.588788,0.191547 1.914998,0.437621 2.690945,0.437621 0.775946,0 2.102157,-0.246074 2.690945,-0.437621 0,0 1.06428,0.870975 1.528346,0.648153 0.330872,-0.158866 0.905203,-1.526787 0.951544,-2.693343 0.6061,-0.276833 2.491089,-1.976637 2.996136,-2.780883 -0.712201,1.895808 -2.738313,3.88652 -2.738313,3.88652 -0.06578,0.814023 -0.528186,2.229423 -1.126624,2.422331 -0.385805,0.124366 -1.234996,-0.557206 -1.574514,-0.804046 -0.65712,0.294765 -1.934474,0.485665 -2.72752,0.485665 -0.793046,0 -2.070401,-0.1909 -2.72752,-0.485665 -0.339519,0.24684 -1.18871,0.928412 -1.574515,0.804046 -0.598439,-0.192908 -1.060845,-1.608308 -1.126623,-2.422331 0,0 -2.026112,-1.990712 -2.738313,-3.88652 z"
       sodipodi:nodetypes="cccccsssscccccccccccccccccccccccccccccccccccccccccccccccccscccscccsczcscc" /></g></svg>
